PathFileType        4      (X/Y/Z)      /Users/FranklinZhao/OpenSimProject/Simulation/Models/Rajapogal_2015/marker_data/trc/transformed_SN001_0010_10m_01.trc         
DataRate	CameraRate	NumFrames	NumMarkers	Units	OrigDataRate	OrigDataStartFrame	OrigNumFrames
200.0	200.0	4	72	mm	200.0	81	641
Frame#	Time	LPSIS			RPSIS			LICR			RICR			LASIS			RASIS			STER			XPRO			C7			T4			T8			T10			RUA1			RUA2			RUA3			RUA4			RHLE			RHME			RTEMP			RHEAD			LHEAD			LTEMP			RACR			LACR			LUA1			LUA2			LUA3			LUA4			LHLE			LHME			LFA1			LFA2			LFA3			LRSP			LUSP			RFA1			RFA2			RFA3			RRSP			RUSP			LTH1			LTH2			LTH3			LTH4			LFLE			LFME			LSK1			LSK2			LSK3			LSK4			LTAM			LFAL			LFCC			LFMT1			LFMT2			LFMT5			RTH1			RTH2			RTH3			RTH4			RFLE			RFME			RSK1			RSK2			RSK3			RSK4			RFAL			RTAM			RFCC			RFMT1			RFMT2			RFMT5			
		X1	Y1	Z1	X2	Y2	Z2	X3	Y3	Z3	X4	Y4	Z4	X5	Y5	Z5	X6	Y6	Z6	X7	Y7	Z7	X8	Y8	Z8	X9	Y9	Z9	X10	Y10	Z10	X11	Y11	Z11	X12	Y12	Z12	X13	Y13	Z13	X14	Y14	Z14	X15	Y15	Z15	X16	Y16	Z16	X17	Y17	Z17	X18	Y18	Z18	X19	Y19	Z19	X20	Y20	Z20	X21	Y21	Z21	X22	Y22	Z22	X23	Y23	Z23	X24	Y24	Z24	X25	Y25	Z25	X26	Y26	Z26	X27	Y27	Z27	X28	Y28	Z28	X29	Y29	Z29	X30	Y30	Z30	X31	Y31	Z31	X32	Y32	Z32	X33	Y33	Z33	X34	Y34	Z34	X35	Y35	Z35	X36	Y36	Z36	X37	Y37	Z37	X38	Y38	Z38	X39	Y39	Z39	X40	Y40	Z40	X41	Y41	Z41	X42	Y42	Z42	X43	Y43	Z43	X44	Y44	Z44	X45	Y45	Z45	X46	Y46	Z46	X47	Y47	Z47	X48	Y48	Z48	X49	Y49	Z49	X50	Y50	Z50	X51	Y51	Z51	X52	Y52	Z52	X53	Y53	Z53	X54	Y54	Z54	X55	Y55	Z55	X56	Y56	Z56	X57	Y57	Z57	X58	Y58	Z58	X59	Y59	Z59	X60	Y60	Z60	X61	Y61	Z61	X62	Y62	Z62	X63	Y63	Z63	X64	Y64	Z64	X65	Y65	Z65	X66	Y66	Z66	X67	Y67	Z67	X68	Y68	Z68	X69	Y69	Z69	X70	Y70	Z70	X71	Y71	Z71	X72	Y72	Z72	
81	0.4	-1567.805053710938	997.447509765625	-242.46009826660176	-1567.178344726562	1003.559143066406	-163.98687744140636	-1544.222900390625	1054.725463867188	-333.58029174804705	-1533.942138671875	1080.605224609375	-69.5812759399416	-1377.262939453125	973.7687377929686	-328.28793334960955	-1371.6376953125	973.567626953125	-72.04514312744159	-1393.696533203125	1443.187744140625	-227.53831481933616	-1336.3525390625	1234.151245117188	-228.16870117187523	-1523.505615234375	1547.26318359375	-208.05480957031278	-1580.689331054688	1437.823852539062	-201.99377441406276	-1584.861694335938	1303.853515625	-198.11222839355491	-1581.616821289062	1258.748291015625	-203.20783996582054	-1462.782104492188	1341.567626953125	47.00452804565405	-1391.706176757812	1341.489990234375	20.584207534789794	-1372.905151367188	1272.150146484375	38.431735992431406	-1441.196899414062	1260.764038085938	67.08637237548805	-1402.955688476562	1176.067260742188	70.88478088378885	-1435.439819335938	1154.406372070312	-1.569630622863982	-1360.409057617188	1703.595581054688	-149.5886383056644	-1319.37548828125	1713.427734375	-186.7432098388675	-1323.38232421875	1707.885498046875	-268.63482666015653	-1372.834838867188	1690.649291992188	-304.7425842285159	-1454.446044921875	1504.565307617188	-34.59592437744169	-1510.689208984375	1496.90576171875	-399.33432006835966	-1527.164306640625	1338.649536132812	-452.5134277343752	-1601.591064453125	1343.753784179688	-438.28054809570335	-1622.28466796875	1260.392822265625	-452.03567504882835	-1548.713500976562	1254.585083007812	-464.8982849121096	-1607.148559570312	1182.179809570312	-461.1062927246096	-1630.056884765625	1176.702758789062	-390.3139343261721	-1550.079833984375	950.7080688476561	-451.61132812500017	-1557.77880859375	957.4074096679686	-496.78662109375017	-1571.859985351562	927.9230346679686	-464.98336791992205	-1599.695556640625	896.9072265624999	-430.97570800781267	-1625.830932617188	904.1987304687499	-496.877136230469	-1245.180297851562	1054.08837890625	96.67205047607402	-1228.131958007812	1059.863159179688	54.79874420165997	-1225.00732421875	1027.386962890625	67.28365325927716	-1199.623901367188	980.4678344726562	38.735237121581854	-1232.915771484375	968.43701171875	93.578659057617	-1293.122436523438	741.6281738281249	-385.175750732422	-1336.093627929688	715.0771484374999	-382.5424804687501	-1284.975219726562	620.2581176757811	-371.8220825195313	-1232.933715820312	658.8569335937499	-378.4115600585939	-1215.660888671875	556.8176269531249	-360.5313110351563	-1212.666259765625	545.9320068359375	-243.83125305175793	-1257.061889648438	380.41009521484375	-374.8929748535157	-1315.393310546875	400.36761474609375	-366.89318847656256	-1342.504150390625	319.43273925781244	-346.46212768554693	-1280.721557617188	302.40386962890614	-357.4415588378907	-1321.845825195312	147.22834777832026	-236.57591247558594	-1371.929077148438	140.92552185058585	-307.2604370117188	-1406.404907226562	111.86393737792966	-245.51046752929693	-1212.33251953125	59.65412139892573	-277.4589233398438	-1218.959106445312	60.575996398925724	-305.9080810546875	-1262.178100585938	59.222412109374936	-344.0297546386719	-1506.974609375	733.8057861328125	-40.21599197387709	-1454.821166992188	705.11279296875	-49.28199005126966	-1469.492065429688	620.8574829101562	-66.69677734375011	-1532.769165039062	636.6243896484375	-61.318542480468864	-1549.710571289062	528.04296875	-84.11656951904307	-1558.592651367188	508.99414062499994	-203.884994506836	-1631.867309570312	358.1847534179688	-73.9721755981446	-1574.1826171875	369.4454650878906	-69.63133239746101	-1582.987670898438	262.6705932617188	-91.59829711914067	-1645.303100585938	277.4786987304688	-87.1702728271485	-1668.71240234375	77.60042572021482	-142.58767700195312	-1622.911376953125	94.12203979492183	-215.79670715332034	-1701.368408203125	51.350994110107386	-194.0087127685547	-1503.569702148438	34.075305938720675	-166.5074310302734	-1501.950805664062	33.468936920166	-124.899528503418	-1551.170532226562	25.466989517211896	-81.93418884277344	
82	0.405	-1559.89306640625	995.4915161132812	-242.75930786132827	-1559.26806640625	1001.734313964844	-164.32524108886736	-1536.144287109375	1052.662719726562	-334.00219726562517	-1525.931762695312	1078.599487304688	-70.35340118408223	-1368.8720703125	971.8695678710936	-328.18609619140636	-1364.110717773438	971.4674682617188	-71.88783264160175	-1384.567626953125	1441.113037109375	-228.13148498535185	-1328.031372070312	1231.9453125	-228.11102294921903	-1514.888061523438	1545.625732421875	-208.38490295410188	-1572.040161132812	1436.016723632812	-202.26258850097685	-1576.522583007812	1302.22119140625	-198.39973449707054	-1573.412963867188	1257.041748046875	-203.51437377929713	-1453.465698242188	1340.255126953125	46.90836715698217	-1382.38525390625	1340.728149414062	20.563972473144286	-1362.972778320312	1271.531127929688	38.77102661132788	-1430.665893554688	1259.665649414062	67.53759002685524	-1392.72412109375	1175.369262695312	71.8192901611326	-1424.55419921875	1152.827392578125	-0.6865637302400799	-1351.782348632812	1701.969116210938	-150.26116943359412	-1310.839721679688	1711.883422851562	-187.32162475585972	-1314.767333984375	1706.093994140625	-269.44628906250034	-1364.411254882812	1688.495483398438	-305.44808959960966	-1445.790649414062	1502.899047851562	-35.05217361450223	-1502.424194335938	1494.949584960938	-399.5388488769534	-1519.863159179688	1336.588989257812	-452.41983032226585	-1594.073608398438	1341.996948242188	-437.51858520507835	-1615.22119140625	1258.877197265625	-451.07904052734403	-1542.003051757812	1252.664672851562	-464.4882812500002	-1600.533447265625	1180.45703125	-460.25662231445335	-1623.366455078125	1175.236450195312	-389.42495727539085	-1546.393798828125	948.5630493164061	-451.1223449707033	-1554.039794921875	955.2729492187499	-496.3525695800783	-1568.755981445312	925.9833374023436	-464.8003234863283	-1596.866088867188	895.3785400390624	-430.63168334960955	-1622.538452148438	902.9078369140624	-496.65972900390636	-1232.490844726562	1055.7509765625	96.91827392578105	-1215.810791015625	1061.440185546875	54.83488845825176	-1211.957641601562	1029.411743164062	67.53218841552716	-1185.989135742188	982.7625122070312	39.087345123290845	-1219.04150390625	970.1666259765625	93.76560211181622	-1284.640502929688	740.2095336914061	-384.9061279296876	-1327.318969726562	713.4345703124999	-382.15298461914074	-1275.771850585938	619.1037597656249	-371.453094482422	-1224.011474609375	657.5905151367186	-378.1947631835939	-1205.979248046875	556.0175170898436	-360.3791503906251	-1202.895629882812	545.1907958984375	-243.6391754150392	-1242.694702148438	378.3279724121093	-375.2077941894532	-1301.728881835938	396.22460937499994	-366.8651428222657	-1326.009033203125	314.43594360351557	-346.62020874023443	-1263.62939453125	299.54052734374994	-357.86859130859386	-1296.82763671875	144.60273742675776	-234.28692626953122	-1349.482421875	134.90898132324213	-307.4194641113281	-1382.35107421875	104.56232452392575	-246.03259277343753	-1187.378662109375	58.193580627441364	-278.998779296875	-1194.637451171875	58.60599517822261	-307.694091796875	-1237.25830078125	56.700065612792905	-345.5078125	-1501.133056640625	732.9814453125	-39.95093154907241	-1449.255981445312	704.1112060546875	-48.96635818481458	-1464.661499023438	619.725341796875	-66.66091918945324	-1527.52294921875	636.1113891601562	-61.33952713012707	-1545.673950195312	527.4896240234375	-83.91624450683604	-1554.497680664062	508.36672973632807	-203.57299804687509	-1629.094482421875	358.3399047851562	-73.87532806396491	-1571.282836914062	369.1220092773438	-69.6173171997071	-1581.027465820312	262.7623291015625	-91.49655151367192	-1643.093505859375	277.8456420898438	-87.18993377685553	-1668.481079101562	78.01432037353513	-142.87882995605472	-1624.009643554688	94.04574584960933	-217.64710998535162	-1701.307739257812	52.05485534667965	-194.0604553222656	-1503.542236328125	34.03464889526364	-166.5215911865234	-1501.851684570312	33.419456481933565	-124.8672256469727	-1551.180297851562	25.513740539550767	-82.0336685180664	
83	0.41	-1552.074340820312	993.612060546875	-243.03129577636736	-1551.570678710938	999.9387817382812	-164.80215454101577	-1528.394775390625	1050.750732421875	-334.31005859375017	-1518.073120117188	1076.906982421875	-71.06963348388692	-1360.41064453125	969.6297607421874	-327.987976074219	-1356.6962890625	969.9695434570312	-71.25918579101581	-1376.347534179688	1439.156005859375	-228.16114807128935	-1319.80859375	1229.814453125	-227.96684265136741	-1506.142456054688	1543.80224609375	-208.87963867187528	-1563.485473632812	1434.584838867188	-202.36495971679716	-1568.294555664062	1300.546264648438	-198.78030395507832	-1565.252197265625	1255.358154296875	-203.87310791015642	-1444.07958984375	1338.85986328125	46.99080276489233	-1373.042358398438	1339.73486328125	20.596439361572024	-1353.14013671875	1270.9375	39.06299972534156	-1420.688232421875	1258.559326171875	67.85825347900368	-1381.6181640625	1174.55419921875	72.29608154296854	-1413.733276367188	1151.382934570312	0.15987284481504271	-1343.284790039062	1700.217041015625	-150.8448638916019	-1302.241943359375	1710.076416015625	-187.9238739013675	-1306.361694335938	1704.283203125	-270.0771179199222	-1355.962036132812	1686.725830078125	-306.2810058593753	-1437.162963867188	1501.307006835938	-35.472129821777614	-1494.049194335938	1492.871459960938	-399.7875061035159	-1512.988891601562	1334.657958984375	-453.3164672851564	-1586.53466796875	1340.104125976562	-436.6888427734377	-1608.162475585938	1257.33251953125	-450.2495727539064	-1534.960693359375	1250.611938476562	-464.25067138671903	-1593.8017578125	1178.71337890625	-459.36038208007835	-1616.212768554688	1173.660034179688	-388.4888610839846	-1542.510009765625	946.2664794921874	-450.74642944335955	-1550.185668945312	953.1330566406249	-496.006286621094	-1565.012939453125	923.6283569335936	-464.3528137207033	-1593.500732421875	893.6179809570311	-430.2818908691408	-1619.495727539062	901.7388916015624	-496.2477111816408	-1220.3486328125	1057.273315429688	97.12876892089824	-1203.478271484375	1063.18310546875	54.816608428954886	-1199.318481445312	1031.057006835938	67.54449462890607	-1172.928344726562	984.6908569335938	38.73863983154279	-1205.388305664062	971.8726806640625	93.86647796630841	-1276.375854492188	738.8690795898436	-385.0948486328126	-1318.859619140625	711.5897216796874	-381.9107055664063	-1266.80224609375	617.2919921874999	-370.8682861328126	-1215.30615234375	656.3749389648436	-378.1707458496095	-1196.708251953125	555.1134033203124	-360.2684020996095	-1193.407592773438	543.7816162109375	-243.61827087402352	-1228.506103515625	376.12857055664057	-375.3371887207032	-1287.9482421875	391.82849121093744	-366.8450012207032	-1309.280029296875	309.1646423339843	-346.58819580078125	-1246.75390625	296.50549316406244	-358.33215332031256	-1276.152709960938	137.75862121582026	-237.79516601562503	-1326.78076171875	129.14688110351554	-307.8907165527344	-1358.536499023438	97.51523590087886	-246.53659057617193	-1161.833251953125	57.15114212036128	-281.35205078125	-1169.114135742188	57.77359008789056	-309.8519897460938	-1212.5810546875	54.38829040527337	-347.2693176269531	-1495.620239257812	732.20947265625	-40.016059875488416	-1443.50048828125	702.8401489257812	-48.86215209960951	-1459.546875	618.956787109375	-66.50888061523449	-1522.456665039062	635.8448486328125	-60.853244781494254	-1541.508056640625	527.1533203125	-83.80906677246104	-1550.3505859375	507.78558349609375	-203.3853607177735	-1626.354614257812	358.5497436523438	-73.94095611572273	-1568.395141601562	369.0018615722656	-69.62207031250007	-1579.064086914062	262.4547424316406	-91.61337280273442	-1641.099365234375	278.1876831054688	-87.10330963134771	-1668.368408203125	78.61240386962888	-142.96855163574222	-1623.6796875	94.37171173095699	-217.82858276367193	-1701.243041992188	52.9072113037109	-193.9920043945312	-1503.52734375	33.998123168945284	-166.5569610595703	-1501.917236328125	33.328514099121065	-124.9076614379883	-1551.133422851562	25.532346725463857	-82.12516784667969	
84	0.415	-1544.181396484375	991.7303466796875	-243.15579223632827	-1543.637329101562	998.1451416015625	-165.20828247070327	-1519.543334960938	1048.623291015625	-334.53814697265636	-1510.393676757812	1075.093383789062	-71.57765960693379	-1351.908447265625	967.6179809570311	-327.916198730469	-1349.146118164062	967.9494018554688	-71.03755950927753	-1367.32421875	1436.99169921875	-228.77154541015645	-1311.543701171875	1227.71728515625	-227.93522644042991	-1497.547729492188	1542.145263671875	-209.46881103515648	-1554.911987304688	1432.815307617188	-202.80337524414085	-1559.911865234375	1298.862182617188	-199.15168762207054	-1557.052734375	1253.709350585938	-204.23956298828142	-1434.6181640625	1337.544677734375	46.84311294555639	-1363.848999023438	1338.775024414062	20.663019180297606	-1343.133056640625	1269.965576171875	39.07031631469704	-1410.658081054688	1257.418823242188	68.21996307373024	-1371.129150390625	1173.824951171875	73.28180694580057	-1403.107543945312	1150.049438476562	1.061393499374179	-1334.665771484375	1698.281494140625	-151.540939331055	-1293.720092773438	1708.34375	-188.68612670898472	-1297.711547851562	1702.556030273438	-270.80346679687534	-1347.2802734375	1684.984985351562	-306.8037414550784	-1428.653442382812	1499.8115234375	-35.807403564453395	-1485.693237304688	1490.656860351562	-400.1433715820315	-1505.054809570312	1332.468994140625	-452.2276000976564	-1578.896362304688	1338.44384765625	-436.0742187500002	-1600.962646484375	1255.450805664062	-449.16275024414085	-1529.12646484375	1249.203979492188	-464.7088623046877	-1587.13623046875	1177.118530273438	-458.64666748046903	-1609.036254882812	1172.02783203125	-387.4758300781252	-1538.1337890625	944.0330200195311	-451.09738159179705	-1545.972900390625	950.7769775390624	-495.76037597656267	-1561.520751953125	921.9738769531249	-463.9710998535158	-1590.47412109375	892.1542968749999	-429.85748291015636	-1616.3349609375	900.7495727539061	-495.76470947265636	-1207.760620117188	1058.7060546875	97.32602691650371	-1191.42333984375	1064.715209960938	54.95914840698222	-1186.658813476562	1032.765991210938	67.53184509277325	-1159.938598632812	986.6277465820312	38.81807327270489	-1191.851928710938	973.4121704101562	94.14934539794903	-1268.041137695312	737.2294311523436	-385.3706665039063	-1310.570922851562	709.6376953124999	-381.6337890625001	-1258.184326171875	615.6847534179686	-370.5365600585939	-1206.814819335938	654.9906005859374	-378.1112670898439	-1187.577026367188	553.8145141601561	-360.01516723632824	-1184.181274414062	542.7154541015625	-243.58564758300793	-1214.607666015625	374.00833129882807	-375.71920776367193	-1274.554321289062	387.43377685546875	-366.5669250488282	-1292.829345703125	304.16278076171875	-346.59542846679693	-1230.082397460938	293.6288757324218	-358.9013977050782	-1251.681030273438	134.75657653808585	-237.09786987304693	-1304.14990234375	123.45323181152334	-308.6377258300781	-1334.12890625	90.76982116699214	-246.96302795410162	-1137.08740234375	56.40112686157222	-283.0852355957031	-1144.497802734375	56.90012359619136	-311.2979431152344	-1187.854736328125	52.440177917480405	-348.7723083496094	-1489.701416015625	731.3734130859375	-39.838283538818494	-1438.041625976562	701.5486450195312	-48.79322052001966	-1454.463623046875	617.8181762695312	-66.30410003662121	-1517.1953125	635.1849975585938	-60.676616668701286	-1537.442626953125	526.763671875	-83.635841369629	-1546.263305664062	507.63088989257807	-203.4263458251954	-1623.637817382812	358.9300537109375	-73.69366455078132	-1565.23046875	369.0086669921875	-69.23350524902351	-1577.044677734375	262.3635559082031	-91.62923431396489	-1639.044921875	278.6005554199219	-87.11454772949224	-1668.112060546875	79.22103881835935	-143.07423400878912	-1623.458862304688	94.92211151123043	-218.47842407226562	-1701.2080078125	53.777160644531214	-193.9863433837891	-1503.54248046875	33.968032836914034	-166.5178527832031	-1501.8466796875	33.33867263793943	-124.9189300537109	-1551.14208984375	25.621004104614247	-82.19332885742188	
